<mxfile host="app.diagrams.net" modified="2020-11-10T09:41:05.481Z" agent="5.0 (Windows NT 10.0; Win64; x64) AppleWebKit/537.36 (KHTML, like Gecko) Chrome/86.0.4240.75 Safari/537.36" etag="_DFzpmvNXXqLKoTt-ooE" version="13.9.2" type="github" pages="2">
  <diagram id="k6TSzxgBKdxzRg7LScaX" name="Page-1">
    <mxGraphModel dx="2249" dy="762" grid="1" gridSize="10" guides="1" tooltips="1" connect="1" arrows="1" fold="1" page="1" pageScale="1" pageWidth="827" pageHeight="1169" math="0" shadow="0">
      <root>
        <mxCell id="0" />
        <mxCell id="1" parent="0" />
        <mxCell id="b5e_h2dMZ-mnhMslBH19-1" value="" style="rounded=1;whiteSpace=wrap;html=1;" vertex="1" parent="1">
          <mxGeometry x="-170" y="230" width="120" height="60" as="geometry" />
        </mxCell>
      </root>
    </mxGraphModel>
  </diagram>
  <diagram id="g6_9_Mm1MbXrIUmQx0Rv" name="Page-2">
    <mxGraphModel dx="1422" dy="1931" grid="1" gridSize="10" guides="1" tooltips="1" connect="1" arrows="1" fold="1" page="1" pageScale="1" pageWidth="827" pageHeight="1169" math="0" shadow="0">
      <root>
        <mxCell id="UhHP-38Qeywe9PDDpsku-0" />
        <mxCell id="UhHP-38Qeywe9PDDpsku-1" parent="UhHP-38Qeywe9PDDpsku-0" />
        <mxCell id="UhHP-38Qeywe9PDDpsku-2" value="DB" style="rounded=1;whiteSpace=wrap;html=1;" vertex="1" parent="UhHP-38Qeywe9PDDpsku-1">
          <mxGeometry x="50" y="190" width="120" height="60" as="geometry" />
        </mxCell>
        <mxCell id="UhHP-38Qeywe9PDDpsku-3" value="GUI" style="rounded=1;whiteSpace=wrap;html=1;" vertex="1" parent="UhHP-38Qeywe9PDDpsku-1">
          <mxGeometry x="40" y="350" width="140" height="80" as="geometry" />
        </mxCell>
        <mxCell id="UhHP-38Qeywe9PDDpsku-5" value="15*N-M Tweets" style="rounded=1;whiteSpace=wrap;html=1;" vertex="1" parent="UhHP-38Qeywe9PDDpsku-1">
          <mxGeometry x="50" y="540" width="120" height="60" as="geometry" />
        </mxCell>
        <mxCell id="UhHP-38Qeywe9PDDpsku-6" value="X-POOL" style="text;html=1;strokeColor=none;fillColor=none;align=center;verticalAlign=middle;whiteSpace=wrap;rounded=0;" vertex="1" parent="UhHP-38Qeywe9PDDpsku-1">
          <mxGeometry x="75" y="600" width="70" height="20" as="geometry" />
        </mxCell>
        <mxCell id="UhHP-38Qeywe9PDDpsku-7" value="" style="endArrow=classic;html=1;" edge="1" parent="UhHP-38Qeywe9PDDpsku-1">
          <mxGeometry width="50" height="50" relative="1" as="geometry">
            <mxPoint x="104.5" y="250" as="sourcePoint" />
            <mxPoint x="104.5" y="350" as="targetPoint" />
          </mxGeometry>
        </mxCell>
        <mxCell id="UhHP-38Qeywe9PDDpsku-8" value="RANDOM CHOOSE 15*N TWEETS" style="text;html=1;strokeColor=none;fillColor=none;align=center;verticalAlign=middle;whiteSpace=wrap;rounded=0;" vertex="1" parent="UhHP-38Qeywe9PDDpsku-1">
          <mxGeometry x="130" y="280" width="130" height="30" as="geometry" />
        </mxCell>
        <mxCell id="UhHP-38Qeywe9PDDpsku-9" value="" style="endArrow=classic;html=1;" edge="1" parent="UhHP-38Qeywe9PDDpsku-1">
          <mxGeometry width="50" height="50" relative="1" as="geometry">
            <mxPoint x="70" y="435" as="sourcePoint" />
            <mxPoint x="70.5" y="525" as="targetPoint" />
          </mxGeometry>
        </mxCell>
        <mxCell id="UhHP-38Qeywe9PDDpsku-10" value="" style="endArrow=none;html=1;" edge="1" parent="UhHP-38Qeywe9PDDpsku-1">
          <mxGeometry width="50" height="50" relative="1" as="geometry">
            <mxPoint x="150" y="500" as="sourcePoint" />
            <mxPoint x="150" y="430" as="targetPoint" />
            <Array as="points">
              <mxPoint x="150" y="460" />
            </Array>
          </mxGeometry>
        </mxCell>
        <mxCell id="UhHP-38Qeywe9PDDpsku-11" value="" style="endArrow=classic;html=1;" edge="1" parent="UhHP-38Qeywe9PDDpsku-1">
          <mxGeometry width="50" height="50" relative="1" as="geometry">
            <mxPoint x="150" y="500" as="sourcePoint" />
            <mxPoint x="260" y="500" as="targetPoint" />
          </mxGeometry>
        </mxCell>
        <mxCell id="UhHP-38Qeywe9PDDpsku-12" value="LABELED TRAINING SET" style="rounded=1;whiteSpace=wrap;html=1;" vertex="1" parent="UhHP-38Qeywe9PDDpsku-1">
          <mxGeometry x="260" y="480" width="120" height="60" as="geometry" />
        </mxCell>
        <mxCell id="UhHP-38Qeywe9PDDpsku-13" value="M TWEETS&amp;nbsp;" style="text;html=1;strokeColor=none;fillColor=none;align=center;verticalAlign=middle;whiteSpace=wrap;rounded=0;" vertex="1" parent="UhHP-38Qeywe9PDDpsku-1">
          <mxGeometry x="270" y="450" width="100" height="30" as="geometry" />
        </mxCell>
        <mxCell id="UhHP-38Qeywe9PDDpsku-14" value="TO LABEL" style="text;html=1;strokeColor=none;fillColor=none;align=center;verticalAlign=middle;whiteSpace=wrap;rounded=0;" vertex="1" parent="UhHP-38Qeywe9PDDpsku-1">
          <mxGeometry x="160" y="470" width="90" height="20" as="geometry" />
        </mxCell>
        <mxCell id="UhHP-38Qeywe9PDDpsku-16" value="" style="endArrow=none;html=1;" edge="1" parent="UhHP-38Qeywe9PDDpsku-1">
          <mxGeometry width="50" height="50" relative="1" as="geometry">
            <mxPoint x="170" y="569.5" as="sourcePoint" />
            <mxPoint x="510" y="570" as="targetPoint" />
          </mxGeometry>
        </mxCell>
        <mxCell id="UhHP-38Qeywe9PDDpsku-17" value="" style="endArrow=none;html=1;" edge="1" parent="UhHP-38Qeywe9PDDpsku-1">
          <mxGeometry width="50" height="50" relative="1" as="geometry">
            <mxPoint x="380" y="520" as="sourcePoint" />
            <mxPoint x="510" y="520" as="targetPoint" />
          </mxGeometry>
        </mxCell>
        <mxCell id="UhHP-38Qeywe9PDDpsku-18" value="" style="endArrow=none;html=1;" edge="1" parent="UhHP-38Qeywe9PDDpsku-1">
          <mxGeometry width="50" height="50" relative="1" as="geometry">
            <mxPoint x="510" y="570" as="sourcePoint" />
            <mxPoint x="510" y="520" as="targetPoint" />
          </mxGeometry>
        </mxCell>
        <mxCell id="UhHP-38Qeywe9PDDpsku-19" value="" style="endArrow=classic;html=1;" edge="1" parent="UhHP-38Qeywe9PDDpsku-1">
          <mxGeometry width="50" height="50" relative="1" as="geometry">
            <mxPoint x="510" y="540" as="sourcePoint" />
            <mxPoint x="560" y="540" as="targetPoint" />
          </mxGeometry>
        </mxCell>
        <mxCell id="UhHP-38Qeywe9PDDpsku-20" value="PRE-PROCESSING" style="rounded=1;whiteSpace=wrap;html=1;" vertex="1" parent="UhHP-38Qeywe9PDDpsku-1">
          <mxGeometry x="560" y="510" width="150" height="60" as="geometry" />
        </mxCell>
        <mxCell id="UhHP-38Qeywe9PDDpsku-21" value="" style="endArrow=classic;html=1;" edge="1" parent="UhHP-38Qeywe9PDDpsku-1">
          <mxGeometry width="50" height="50" relative="1" as="geometry">
            <mxPoint x="640" y="510" as="sourcePoint" />
            <mxPoint x="640" y="440" as="targetPoint" />
          </mxGeometry>
        </mxCell>
        <mxCell id="UhHP-38Qeywe9PDDpsku-22" value="VECTOR SELECTION" style="rounded=1;whiteSpace=wrap;html=1;" vertex="1" parent="UhHP-38Qeywe9PDDpsku-1">
          <mxGeometry x="577.5" y="380" width="115" height="60" as="geometry" />
        </mxCell>
        <mxCell id="UhHP-38Qeywe9PDDpsku-23" value="" style="endArrow=classic;html=1;" edge="1" parent="UhHP-38Qeywe9PDDpsku-1">
          <mxGeometry width="50" height="50" relative="1" as="geometry">
            <mxPoint x="640" y="380" as="sourcePoint" />
            <mxPoint x="640" y="310" as="targetPoint" />
          </mxGeometry>
        </mxCell>
        <mxCell id="UhHP-38Qeywe9PDDpsku-24" value="FEATURE MATRIX 15N* NUMBER OF FEATURES" style="rounded=1;whiteSpace=wrap;html=1;" vertex="1" parent="UhHP-38Qeywe9PDDpsku-1">
          <mxGeometry x="560" y="250" width="167.5" height="60" as="geometry" />
        </mxCell>
        <mxCell id="UhHP-38Qeywe9PDDpsku-25" value="TWO PART: TRAINING SET AND X-POOL" style="text;html=1;strokeColor=none;fillColor=none;align=center;verticalAlign=middle;whiteSpace=wrap;rounded=0;" vertex="1" parent="UhHP-38Qeywe9PDDpsku-1">
          <mxGeometry x="740" y="260" width="136.25" height="40" as="geometry" />
        </mxCell>
        <mxCell id="UhHP-38Qeywe9PDDpsku-26" value="CHOOSE CLASSIFIER" style="rounded=1;whiteSpace=wrap;html=1;" vertex="1" parent="UhHP-38Qeywe9PDDpsku-1">
          <mxGeometry x="575" y="130" width="125" height="60" as="geometry" />
        </mxCell>
        <mxCell id="UhHP-38Qeywe9PDDpsku-27" value="" style="endArrow=classic;html=1;" edge="1" parent="UhHP-38Qeywe9PDDpsku-1">
          <mxGeometry width="50" height="50" relative="1" as="geometry">
            <mxPoint x="643.25" y="250" as="sourcePoint" />
            <mxPoint x="643.25" y="190" as="targetPoint" />
          </mxGeometry>
        </mxCell>
        <mxCell id="UhHP-38Qeywe9PDDpsku-28" value="TRAINING INITIAL INSTANCE&amp;nbsp;" style="text;html=1;strokeColor=none;fillColor=none;align=center;verticalAlign=middle;whiteSpace=wrap;rounded=0;" vertex="1" parent="UhHP-38Qeywe9PDDpsku-1">
          <mxGeometry x="420" y="140" width="170" height="40" as="geometry" />
        </mxCell>
        <mxCell id="UhHP-38Qeywe9PDDpsku-29" value="" style="endArrow=classic;html=1;entryX=0.5;entryY=1;entryDx=0;entryDy=0;" edge="1" parent="UhHP-38Qeywe9PDDpsku-1" target="UhHP-38Qeywe9PDDpsku-30">
          <mxGeometry width="50" height="50" relative="1" as="geometry">
            <mxPoint x="643.25" y="130" as="sourcePoint" />
            <mxPoint x="643" y="90" as="targetPoint" />
          </mxGeometry>
        </mxCell>
        <mxCell id="UhHP-38Qeywe9PDDpsku-30" value="QUERY STRATEGY" style="rounded=1;whiteSpace=wrap;html=1;" vertex="1" parent="UhHP-38Qeywe9PDDpsku-1">
          <mxGeometry x="572.5" y="10" width="137.5" height="60" as="geometry" />
        </mxCell>
        <mxCell id="UhHP-38Qeywe9PDDpsku-32" value="UNCERTAINTY SAMPLING&amp;nbsp;" style="text;html=1;strokeColor=none;fillColor=none;align=center;verticalAlign=middle;whiteSpace=wrap;rounded=0;" vertex="1" parent="UhHP-38Qeywe9PDDpsku-1">
          <mxGeometry x="392.5" y="25" width="180" height="30" as="geometry" />
        </mxCell>
        <mxCell id="UhHP-38Qeywe9PDDpsku-33" value="QUERY" style="rounded=1;whiteSpace=wrap;html=1;" vertex="1" parent="UhHP-38Qeywe9PDDpsku-1">
          <mxGeometry x="836.25" y="15" width="70" height="40" as="geometry" />
        </mxCell>
        <mxCell id="UhHP-38Qeywe9PDDpsku-35" value="ACTIVE LEARNING&amp;nbsp;" style="rounded=1;whiteSpace=wrap;html=1;" vertex="1" parent="UhHP-38Qeywe9PDDpsku-1">
          <mxGeometry x="260" y="20" width="140" height="60" as="geometry" />
        </mxCell>
        <mxCell id="UhHP-38Qeywe9PDDpsku-36" value="LABEL" style="rounded=1;whiteSpace=wrap;html=1;" vertex="1" parent="UhHP-38Qeywe9PDDpsku-1">
          <mxGeometry x="930" y="80" width="70" height="40" as="geometry" />
        </mxCell>
        <mxCell id="UhHP-38Qeywe9PDDpsku-37" value="ACCURACY" style="rounded=1;whiteSpace=wrap;html=1;" vertex="1" parent="UhHP-38Qeywe9PDDpsku-1">
          <mxGeometry x="1030" y="15" width="70" height="40" as="geometry" />
        </mxCell>
        <mxCell id="UhHP-38Qeywe9PDDpsku-38" value="DECISION" style="rounded=1;whiteSpace=wrap;html=1;" vertex="1" parent="UhHP-38Qeywe9PDDpsku-1">
          <mxGeometry x="930" y="-50" width="70" height="40" as="geometry" />
        </mxCell>
        <mxCell id="UhHP-38Qeywe9PDDpsku-39" value="+1&amp;nbsp;" style="text;html=1;strokeColor=none;fillColor=none;align=center;verticalAlign=middle;whiteSpace=wrap;rounded=0;" vertex="1" parent="UhHP-38Qeywe9PDDpsku-1">
          <mxGeometry x="900" y="25" width="40" height="20" as="geometry" />
        </mxCell>
        <mxCell id="UhHP-38Qeywe9PDDpsku-43" value="" style="endArrow=classic;html=1;" edge="1" parent="UhHP-38Qeywe9PDDpsku-1">
          <mxGeometry width="50" height="50" relative="1" as="geometry">
            <mxPoint x="720" y="39.5" as="sourcePoint" />
            <mxPoint x="800" y="39.5" as="targetPoint" />
          </mxGeometry>
        </mxCell>
        <mxCell id="UhHP-38Qeywe9PDDpsku-44" value="" style="endArrow=classic;html=1;" edge="1" parent="UhHP-38Qeywe9PDDpsku-1">
          <mxGeometry width="50" height="50" relative="1" as="geometry">
            <mxPoint x="960" y="-120" as="sourcePoint" />
            <mxPoint x="630" y="-120" as="targetPoint" />
          </mxGeometry>
        </mxCell>
        <mxCell id="UhHP-38Qeywe9PDDpsku-45" value="BREAK OT CONTINUE" style="text;html=1;strokeColor=none;fillColor=none;align=center;verticalAlign=middle;whiteSpace=wrap;rounded=0;" vertex="1" parent="UhHP-38Qeywe9PDDpsku-1">
          <mxGeometry x="692.5" y="-170" width="180" height="40" as="geometry" />
        </mxCell>
        <mxCell id="UhHP-38Qeywe9PDDpsku-46" value="" style="endArrow=none;html=1;" edge="1" parent="UhHP-38Qeywe9PDDpsku-1">
          <mxGeometry width="50" height="50" relative="1" as="geometry">
            <mxPoint x="960" y="-50" as="sourcePoint" />
            <mxPoint x="960" y="-120" as="targetPoint" />
          </mxGeometry>
        </mxCell>
        <mxCell id="UhHP-38Qeywe9PDDpsku-47" value="ACCURACY CURVE&amp;nbsp;" style="rounded=1;whiteSpace=wrap;html=1;" vertex="1" parent="UhHP-38Qeywe9PDDpsku-1">
          <mxGeometry x="510" y="-150" width="120" height="60" as="geometry" />
        </mxCell>
        <mxCell id="UhHP-38Qeywe9PDDpsku-48" value="" style="endArrow=classic;html=1;entryX=0.5;entryY=1;entryDx=0;entryDy=0;" edge="1" parent="UhHP-38Qeywe9PDDpsku-1" target="UhHP-38Qeywe9PDDpsku-37">
          <mxGeometry width="50" height="50" relative="1" as="geometry">
            <mxPoint x="1000" y="105" as="sourcePoint" />
            <mxPoint x="1050" y="55" as="targetPoint" />
          </mxGeometry>
        </mxCell>
        <mxCell id="UhHP-38Qeywe9PDDpsku-49" value="" style="endArrow=classic;html=1;" edge="1" parent="UhHP-38Qeywe9PDDpsku-1">
          <mxGeometry width="50" height="50" relative="1" as="geometry">
            <mxPoint x="1060" y="15" as="sourcePoint" />
            <mxPoint x="1010" y="-35" as="targetPoint" />
          </mxGeometry>
        </mxCell>
        <mxCell id="UhHP-38Qeywe9PDDpsku-51" value="" style="endArrow=classic;html=1;" edge="1" parent="UhHP-38Qeywe9PDDpsku-1">
          <mxGeometry width="50" height="50" relative="1" as="geometry">
            <mxPoint x="870" y="60" as="sourcePoint" />
            <mxPoint x="926.87" y="100" as="targetPoint" />
          </mxGeometry>
        </mxCell>
        <mxCell id="UhHP-38Qeywe9PDDpsku-52" value="" style="endArrow=classic;html=1;entryX=0.5;entryY=0;entryDx=0;entryDy=0;" edge="1" parent="UhHP-38Qeywe9PDDpsku-1" target="UhHP-38Qeywe9PDDpsku-33">
          <mxGeometry width="50" height="50" relative="1" as="geometry">
            <mxPoint x="930" y="-40" as="sourcePoint" />
            <mxPoint x="870" y="-10" as="targetPoint" />
          </mxGeometry>
        </mxCell>
        <mxCell id="UhHP-38Qeywe9PDDpsku-55" value="TEST SET (50 LABELED TWEETS)" style="rounded=1;whiteSpace=wrap;html=1;" vertex="1" parent="UhHP-38Qeywe9PDDpsku-1">
          <mxGeometry x="1090" y="100" width="169" height="50" as="geometry" />
        </mxCell>
        <mxCell id="UhHP-38Qeywe9PDDpsku-56" value="" style="endArrow=classic;html=1;entryX=0.586;entryY=-0.02;entryDx=0;entryDy=0;entryPerimeter=0;exitX=1;exitY=1;exitDx=0;exitDy=0;" edge="1" parent="UhHP-38Qeywe9PDDpsku-1" source="UhHP-38Qeywe9PDDpsku-37" target="UhHP-38Qeywe9PDDpsku-55">
          <mxGeometry width="50" height="50" relative="1" as="geometry">
            <mxPoint x="1110" y="60" as="sourcePoint" />
            <mxPoint x="1170" y="80" as="targetPoint" />
          </mxGeometry>
        </mxCell>
        <mxCell id="UhHP-38Qeywe9PDDpsku-58" value="QUERY FROM X-POOL" style="text;html=1;strokeColor=none;fillColor=none;align=center;verticalAlign=middle;whiteSpace=wrap;rounded=0;" vertex="1" parent="UhHP-38Qeywe9PDDpsku-1">
          <mxGeometry x="722.5" y="-20" width="153.75" height="40" as="geometry" />
        </mxCell>
        <mxCell id="UhHP-38Qeywe9PDDpsku-61" value="" style="endArrow=classic;html=1;exitX=0;exitY=0.75;exitDx=0;exitDy=0;" edge="1" parent="UhHP-38Qeywe9PDDpsku-1" source="UhHP-38Qeywe9PDDpsku-36">
          <mxGeometry width="50" height="50" relative="1" as="geometry">
            <mxPoint x="906.25" y="110" as="sourcePoint" />
            <mxPoint x="720" y="160" as="targetPoint" />
          </mxGeometry>
        </mxCell>
        <mxCell id="UhHP-38Qeywe9PDDpsku-62" value="PUT INTO CLASSIFIER TO TRAIN" style="text;html=1;strokeColor=none;fillColor=none;align=center;verticalAlign=middle;whiteSpace=wrap;rounded=0;" vertex="1" parent="UhHP-38Qeywe9PDDpsku-1">
          <mxGeometry x="862.5" y="120" width="205" height="40" as="geometry" />
        </mxCell>
        <mxCell id="UhHP-38Qeywe9PDDpsku-64" value="" style="strokeWidth=2;html=1;shape=mxgraph.flowchart.annotation_2;align=left;labelPosition=right;pointerEvents=1;rotation=-180;" vertex="1" parent="UhHP-38Qeywe9PDDpsku-1">
          <mxGeometry x="842.5" y="160" width="87.5" height="400" as="geometry" />
        </mxCell>
        <mxCell id="UhHP-38Qeywe9PDDpsku-66" value="SUPERVISED LEARNING" style="rounded=1;whiteSpace=wrap;html=1;" vertex="1" parent="UhHP-38Qeywe9PDDpsku-1">
          <mxGeometry x="960" y="330" width="170" height="70" as="geometry" />
        </mxCell>
      </root>
    </mxGraphModel>
  </diagram>
</mxfile>
